<svg width="50" height="50" viewBox="0 0 50 50" fill="none" xmlns="http://www.w3.org/2000/svg">
<path d="M25.7709 4.47925L44.5209 11.9792C45.2501 12.2709 45.8334 13.1458 45.8334 13.9167V20.8334C45.8334 21.9792 44.8959 22.9167 43.7501 22.9167H6.25008C5.10425 22.9167 4.16675 21.9792 4.16675 20.8334V13.9167C4.16675 13.1458 4.75009 12.2709 5.47926 11.9792L24.2293 4.47925C24.6459 4.31258 25.3542 4.31258 25.7709 4.47925Z" fill="#195399" stroke="#FAFAFA" stroke-width="1.5" stroke-miterlimit="10" stroke-linecap="round" stroke-linejoin="round"/>
<path d="M45.8334 45.8333H4.16675V39.5833C4.16675 38.4375 5.10425 37.5 6.25008 37.5H43.7501C44.8959 37.5 45.8334 38.4375 45.8334 39.5833V45.8333Z" fill="#195399" stroke="#FAFAFA" stroke-width="1.5" stroke-miterlimit="10" stroke-linecap="round" stroke-linejoin="round"/>
<path d="M8.33325 37.5V22.9167" stroke="#FAFAFA" stroke-width="1.5" stroke-miterlimit="10" stroke-linecap="round" stroke-linejoin="round"/>
<path d="M16.6667 37.5V22.9167" stroke="#FAFAFA" stroke-width="1.5" stroke-miterlimit="10" stroke-linecap="round" stroke-linejoin="round"/>
<path d="M25 37.5V22.9167" stroke="#FAFAFA" stroke-width="1.5" stroke-miterlimit="10" stroke-linecap="round" stroke-linejoin="round"/>
<path d="M33.3333 37.5V22.9167" stroke="#FAFAFA" stroke-width="1.5" stroke-miterlimit="10" stroke-linecap="round" stroke-linejoin="round"/>
<path d="M41.6667 37.5V22.9167" stroke="#FAFAFA" stroke-width="1.5" stroke-miterlimit="10" stroke-linecap="round" stroke-linejoin="round"/>
<path d="M2.08325 45.8333H47.9166" stroke="#FAFAFA" stroke-width="1.5" stroke-miterlimit="10" stroke-linecap="round" stroke-linejoin="round"/>
<path d="M25 17.7083C26.7259 17.7083 28.125 16.3092 28.125 14.5833C28.125 12.8574 26.7259 11.4583 25 11.4583C23.2741 11.4583 21.875 12.8574 21.875 14.5833C21.875 16.3092 23.2741 17.7083 25 17.7083Z" fill="#195399" stroke="#FAFAFA" stroke-width="1.5" stroke-miterlimit="10" stroke-linecap="round" stroke-linejoin="round"/>
</svg>
