<svg width="50" height="50" viewBox="0 0 50 50" fill="none" xmlns="http://www.w3.org/2000/svg">
<path d="M18.0625 29.1666H8.33329C6.04163 29.1666 4.16663 31.0416 4.16663 33.3333V45.8333H18.0625V29.1666Z" fill="#195399" stroke="#FAFAFA" stroke-width="1.5" stroke-miterlimit="10" stroke-linecap="round" stroke-linejoin="round"/>
<path d="M27.7708 20.8334H22.2083C19.9166 20.8334 18.0416 22.7084 18.0416 25V45.8334H31.9375V25C31.9375 22.7084 30.0833 20.8334 27.7708 20.8334Z" fill="#195399" stroke="#FAFAFA" stroke-width="1.5" stroke-miterlimit="10" stroke-linecap="round" stroke-linejoin="round"/>
<path d="M41.6667 35.4166H31.9375V45.8333H45.8333V39.5833C45.8333 37.2916 43.9583 35.4166 41.6667 35.4166Z" fill="#195399" stroke="#FAFAFA" stroke-width="1.5" stroke-miterlimit="10" stroke-linecap="round" stroke-linejoin="round"/>
<path d="M26.0833 4.3125L27.1875 6.52083C27.3333 6.83333 27.7292 7.12499 28.0625 7.16665L30.0625 7.5C31.3333 7.70833 31.6458 8.64579 30.7292 9.54162L29.1667 11.1041C28.8958 11.375 28.75 11.875 28.8333 12.2291L29.2708 14.1458C29.625 15.6667 28.8125 16.25 27.4792 15.4583L25.6042 14.3542C25.2708 14.1458 24.7083 14.1458 24.375 14.3542L22.5 15.4583C21.1667 16.25 20.3542 15.6667 20.7083 14.1458L21.1458 12.2291C21.2292 11.875 21.0833 11.3541 20.8125 11.1041L19.2708 9.56247C18.3542 8.64581 18.6458 7.72912 19.9375 7.52079L21.9375 7.18751C22.2708 7.12501 22.6667 6.83335 22.8125 6.54168L23.9167 4.33329C24.5208 3.12495 25.4792 3.125 26.0833 4.3125Z" fill="#195399" stroke="#FAFAFA" stroke-width="1.5" stroke-linecap="round" stroke-linejoin="round"/>
</svg>
