<svg width="50" height="50" viewBox="0 0 50 50" fill="none" xmlns="http://www.w3.org/2000/svg">
<path d="M43.5625 23.1666C43.5625 33.3541 36.1667 42.8958 26.0625 45.6875C25.375 45.875 24.625 45.875 23.9375 45.6875C13.8333 42.8958 6.4375 33.3541 6.4375 23.1666V14.0208C6.4375 12.3124 7.7292 10.3749 9.33336 9.72911L20.9375 4.97918C23.5417 3.91668 26.4792 3.91668 29.0833 4.97918L40.6875 9.72911C42.2708 10.3749 43.5834 12.3124 43.5834 14.0208L43.5625 23.1666Z" fill="#195399" stroke="#FAFAFA" stroke-width="1.5" stroke-linecap="round" stroke-linejoin="round"/>
<path d="M25 26.0417C27.3012 26.0417 29.1667 24.1762 29.1667 21.875C29.1667 19.5738 27.3012 17.7083 25 17.7083C22.6988 17.7083 20.8333 19.5738 20.8333 21.875C20.8333 24.1762 22.6988 26.0417 25 26.0417Z" fill="#195399" stroke="#FAFAFA" stroke-width="1.5" stroke-miterlimit="10" stroke-linecap="round" stroke-linejoin="round"/>
<path d="M25 26.0417V32.2917" stroke="#FAFAFA" stroke-width="1.5" stroke-miterlimit="10" stroke-linecap="round" stroke-linejoin="round"/>
</svg>
