<svg width="52" height="62" viewBox="0 0 52 62" fill="none" xmlns="http://www.w3.org/2000/svg">
<path d="M25.5989 14.3254L23.0321 1M30.1979 10.7934L31.8556 4.10391M30.1979 44.2407L33.7273 61.5263M25.5989 49.5388L24.4759 56.7634M40.7861 23.1937L51 17.8575M12.5508 23.1937L1 15.9309M7.52406 25.8848H2.06952M15.1176 39.2102L5.2246 47.5052M41.9091 36.5574L49.7701 40.552M27.1107 23.1937L35.3806 15.9309L32.9142 27.2609L42.9251 30.0935L32.9142 32.926L35.3806 40.552L27.9087 36.5574L20.6544 46.4349L21.5249 34.6691L7.52406 32.1997L19.3957 27.2609L17.0998 16.5119L27.1107 23.1937Z" stroke="#F7D116" stroke-width="3"/>
</svg>
