<svg width="44" height="36" viewBox="0 0 44 36" fill="none" xmlns="http://www.w3.org/2000/svg">
<path fill-rule="evenodd" clip-rule="evenodd" d="M0.125 7.0625C0.125 6.19956 0.824555 5.5 1.6875 5.5H32.9375C33.8004 5.5 34.5 6.19956 34.5 7.0625C34.5 7.92545 33.8004 8.625 32.9375 8.625H1.6875C0.824555 8.625 0.125 7.92545 0.125 7.0625Z" fill="white"/>
<path fill-rule="evenodd" clip-rule="evenodd" d="M9.5 28.9375C9.5 28.0746 10.1996 27.375 11.0625 27.375H42.3125C43.1754 27.375 43.875 28.0746 43.875 28.9375C43.875 29.8004 43.1754 30.5 42.3125 30.5H11.0625C10.1996 30.5 9.5 29.8004 9.5 28.9375Z" fill="#2672CA"/>
<path fill-rule="evenodd" clip-rule="evenodd" d="M36.5201 1.27015C37.1303 0.659951 38.1197 0.659951 38.7299 1.27015L43.4174 5.95765C44.0275 6.56784 44.0275 7.55716 43.4174 8.16735L38.7299 12.8549C38.1197 13.465 37.1303 13.465 36.5201 12.8549C35.91 12.2447 35.91 11.2553 36.5201 10.6451L40.1028 7.0625L36.5201 3.47985C35.91 2.86966 35.91 1.88034 36.5201 1.27015Z" fill="white"/>
<path fill-rule="evenodd" clip-rule="evenodd" d="M7.47985 23.1451C6.86966 22.535 5.88034 22.535 5.27015 23.1451L0.582645 27.8326C-0.0275488 28.4428 -0.0275488 29.4322 0.582645 30.0424L5.27015 34.7299C5.88034 35.34 6.86966 35.34 7.47985 34.7299C8.09005 34.1197 8.09005 33.1303 7.47985 32.5201L3.89721 28.9375L7.47985 25.3549C8.09005 24.7447 8.09005 23.7553 7.47985 23.1451Z" fill="#2672CA"/>
</svg>
